<?xml version="1.0" encoding="utf-8"?>
<!-- Generator: Adobe Illustrator 14.0.0, SVG Export Plug-In . SVG Version: 6.00 Build 43363)  -->
<!DOCTYPE svg PUBLIC "-//W3C//DTD SVG 1.1//EN" "http://www.w3.org/Graphics/SVG/1.1/DTD/svg11.dtd">
<svg version="1.1"
	 id="Layer_1" color-interpolation="auto" image-rendering="auto" shape-rendering="auto" color-rendering="auto" text-rendering="auto"
	 xmlns="http://www.w3.org/2000/svg" xmlns:xlink="http://www.w3.org/1999/xlink" x="0px" y="0px"
	 viewBox="0 0 450 450" xml:space="preserve">
<g>
	<g>
		<rect fill="#FFFFFF" width="400" height="415"/>
		<path d="M10,105.022h22v1.583H10V105.022z"/>
	</g>
	<g>
		<path fill="none" stroke="#000000" stroke-width="1.5839" stroke-linejoin="bevel" stroke-miterlimit="10" d="M39,45.404h-0.459
			h-0.792c-2.916,0-5.28,2.364-5.28,5.279v1.584v105.508v1.584c0,2.916,2.364,5.28,5.28,5.28h0.792H39"/>
		<path d="M38.541,44.612H200v1.583H38.541V44.612z"/>
		<path fill="none" stroke="#000000" stroke-width="1.5839" stroke-linejoin="bevel" stroke-miterlimit="10" d="M207,27.981h-0.57
			h-0.792c-2.916,0-5.279,2.364-5.279,5.28v1.583v21.119v1.583c0,2.916,2.364,5.28,5.279,5.28h0.792H207"/>
		<path d="M206.43,27.189h21.118v1.584H206.43V27.189z"/>
	</g>
	<g>
		<text transform="matrix(1 0 0 1 232.8281 34.1426)" font-family="'Calibri-Italic'" font-size="25">Uca</text>
		<path d="M206.43,62.035h21.118v1.584H206.43V62.035z"/>
		<text transform="matrix(1 0 0 1 232.8281 68.9883)" font-family="'Calibri-Italic'" font-size="25">Afruca</text>
		<path d="M38.541,163.848H60v1.584H38.541V163.848z"/>
		<path fill="none" stroke="#000000" stroke-width="1.5839" stroke-linejoin="bevel" stroke-miterlimit="10" d="M67,115.094h-0.478
			H65.73c-2.916,0-5.28,2.364-5.28,5.279v1.584v85.364v1.584c0,2.916,2.364,5.279,5.28,5.279h0.792H67"/>
		<path d="M66.522,114.302H200v1.584H66.522V114.302z"/>
		<path fill="none" stroke="#000000" stroke-width="1.5839" stroke-linejoin="bevel" stroke-miterlimit="10" d="M207,97.671h-0.57
			h-0.792c-2.916,0-5.279,2.364-5.279,5.28v1.584v21.118v1.584c0,2.916,2.364,5.279,5.279,5.279h0.792H207"/>
		<path d="M206.43,96.88h21.118v1.583H206.43V96.88z"/>
		<text transform="matrix(1 0 0 1 232.8281 103.833)" font-family="'Calibri-Italic'" font-size="25">Minuca</text>
		<path d="M206.43,131.725h21.118v1.584H206.43V131.725z"/>
		<text transform="matrix(1 0 0 1 232.8281 138.6777)" font-family="'Calibri-Italic'" font-size="25">Leptuca</text>
		<path d="M66.522,213.393H88v1.584H66.522V213.393z"/>
		<path fill="none" stroke="#000000" stroke-width="1.5839" stroke-linejoin="bevel" stroke-miterlimit="10" d="M95,167.362h-0.496
			h-0.792c-2.916,0-5.279,2.364-5.279,5.279v1.584v79.919v1.583c0,2.916,2.364,5.28,5.279,5.28h0.792H95"/>
		<path d="M94.504,166.57h133.044v1.584H94.504V166.57z"/>
		<text transform="matrix(1 0 0 1 232.8281 173.5234)" font-family="'Calibri-Italic'" font-size="25">Austruca</text>
		<path d="M94.504,260.216H116v1.584H94.504V260.216z"/>
		<path fill="none" stroke="#000000" stroke-width="1.5839" stroke-linejoin="bevel" stroke-miterlimit="10" d="M123,219.629h-0.515
			h-0.792c-2.916,0-5.279,2.364-5.279,5.279v1.584v69.03v1.584c0,2.916,2.364,5.28,5.279,5.28h0.792H123"/>
		<path d="M122.485,218.837H200v1.583h-77.515V218.837z"/>
		<path fill="none" stroke="#000000" stroke-width="1.5839" stroke-linejoin="bevel" stroke-miterlimit="10" d="M207,202.207h-0.57
			h-0.792c-2.916,0-5.279,2.364-5.279,5.28v1.584v21.118v1.584c0,2.916,2.364,5.279,5.279,5.279h0.792H207"/>
		<path d="M206.43,201.415h21.118v1.584H206.43V201.415z"/>
		<text transform="matrix(1 0 0 1 232.8281 208.3682)" font-family="'Calibri-Italic'" font-size="25">Cranuca</text>
		<path d="M206.43,236.26h21.118v1.584H206.43V236.26z"/>
		<text transform="matrix(1 0 0 1 232.8281 243.2129)" font-family="'Calibri-Italic'" font-size="25">Gelasimus</text>
		<path d="M122.485,301.594H144v1.584h-21.515V301.594z"/>
		<path fill="none" stroke="#000000" stroke-width="1.5839" stroke-linejoin="bevel" stroke-miterlimit="10" d="M151,271.896h-0.533
			h-0.792c-2.916,0-5.28,2.364-5.28,5.28v1.584v47.251v1.584c0,2.916,2.364,5.279,5.28,5.279h0.792H151"/>
		<path d="M150.467,271.105h77.081v1.583h-77.081V271.105z"/>
		<text transform="matrix(1 0 0 1 232.8281 278.0586)" font-family="'Calibri-Italic'" font-size="25">Paraleptuca</text>
		<path d="M150.467,332.084H172v1.583h-21.533V332.084z"/>
		<path fill="none" stroke="#000000" stroke-width="1.5839" stroke-linejoin="bevel" stroke-miterlimit="10" d="M179,306.742h-0.551
			h-0.792c-2.916,0-5.28,2.363-5.28,5.279v1.584v38.54v1.584c0,2.916,2.364,5.279,5.28,5.279h0.792H179"/>
		<path d="M178.449,305.949h49.1v1.584h-49.1V305.949z"/>
		<text transform="matrix(1 0 0 1 232.8281 312.9033)" font-family="'Calibri-Italic'" font-size="25">Xeruca</text>
		<path d="M178.449,358.217H200v1.584h-21.551V358.217z"/>
		<path fill="none" stroke="#000000" stroke-width="1.5839" stroke-linejoin="bevel" stroke-miterlimit="10" d="M207,341.587h-0.57
			h-0.792c-2.916,0-5.279,2.363-5.279,5.279v1.584v21.118v1.584c0,2.916,2.364,5.279,5.279,5.279h0.792H207"/>
		<path d="M206.43,340.795h21.118v1.584H206.43V340.795z"/>
		<text transform="matrix(1 0 0 1 232.8281 347.748)" font-family="'Calibri-Italic'" font-size="25">Tubuca</text>
		<path d="M206.43,375.64h21.118v1.584H206.43V375.64z"/>
		<text transform="matrix(1 0 0 1 232.8281 382.5928)" font-family="'Calibri-Italic'" font-size="25">Australuca</text>
	</g>
</g>
</svg>
