<?xml version="1.0" encoding="utf-8"?>
<!-- Generator: Adobe Illustrator 14.0.0, SVG Export Plug-In . SVG Version: 6.00 Build 43363)  -->
<!DOCTYPE svg PUBLIC "-//W3C//DTD SVG 1.1//EN" "http://www.w3.org/Graphics/SVG/1.1/DTD/svg11.dtd">
<svg version="1.1"
	 id="Layer_1" color-interpolation="auto" image-rendering="auto" shape-rendering="auto" color-rendering="auto" text-rendering="auto"
	 xmlns="http://www.w3.org/2000/svg" xmlns:xlink="http://www.w3.org/1999/xlink" x="0px" y="0px" 
	 viewBox="0 0 450 2500" xml:space="preserve">
<g>
	<g>
		<rect fill="#FFFFFF" width="400" height="2465"/>
		<path d="M7,1749.196h15v1.089H7V1749.196z"/>
	</g>
	<g>
		<path fill="none" stroke="#000000" stroke-width="1.0884" stroke-linejoin="bevel" stroke-miterlimit="10" d="M27,1219.462h-0.517
			h-0.544c-2.003,0-3.627,1.624-3.627,3.628v1.088v1050.037v1.089c0,2.004,1.624,3.628,3.627,3.628h0.544H27"/>
		<path d="M26.483,1218.918H41v1.088H26.483V1218.918z"/>
		<path fill="none" stroke="#000000" stroke-width="1.0884" stroke-linejoin="bevel" stroke-miterlimit="10" d="M46,791.512h-0.289
			h-0.544c-2.004,0-3.628,1.624-3.628,3.628v1.088v846.468v1.089c0,2.003,1.624,3.628,3.628,3.628h0.544H46"/>
		<path d="M45.711,790.967H61v1.089H45.711V790.967z"/>
		<path fill="none" stroke="#000000" stroke-width="1.0884" stroke-linejoin="bevel" stroke-miterlimit="10" d="M65,610.529h-0.062
			h-0.544c-2.003,0-3.628,1.624-3.628,3.628v1.089v352.531v1.088c0,2.004,1.625,3.628,3.628,3.628h0.544H65"/>
		<path d="M64.938,609.985H80v1.088H64.938V609.985z"/>
		<path fill="none" stroke="#000000" stroke-width="1.0884" stroke-linejoin="bevel" stroke-miterlimit="10" d="M85,452.837h-0.833
			h-0.544c-2.003,0-3.628,1.624-3.628,3.627v1.089v305.953v1.089c0,2.003,1.625,3.628,3.628,3.628h0.544H85"/>
		<path d="M84.167,452.292H99v1.089H84.167V452.292z"/>
		<path fill="none" stroke="#000000" stroke-width="1.0884" stroke-linejoin="bevel" stroke-miterlimit="10" d="M104,358.184h-0.606
			h-0.544c-2.003,0-3.627,1.624-3.627,3.628v1.088v179.874v1.088c0,2.004,1.624,3.628,3.627,3.628h0.544H104"/>
		<path d="M103.394,357.639H118v1.089h-14.606V357.639z"/>
		<path fill="none" stroke="#000000" stroke-width="1.0884" stroke-linejoin="bevel" stroke-miterlimit="10" d="M123,218.261h-0.378
			h-0.544c-2.004,0-3.628,1.624-3.628,3.628v1.088v270.411v1.089c0,2.004,1.624,3.628,3.628,3.628h0.544H123"/>
		<path d="M122.622,217.717H138v1.088h-15.378V217.717z"/>
		<path fill="none" stroke="#000000" stroke-width="1.0884" stroke-linejoin="bevel" stroke-miterlimit="10" d="M142,97.045h-0.151
			h-0.544c-2.004,0-3.628,1.624-3.628,3.627v1.089v232.999v1.089c0,2.003,1.624,3.628,3.628,3.628h0.544H142"/>
		<path d="M141.849,96.501H176v1.088h-34.151V96.501z"/>
		<path fill="none" stroke="#000000" stroke-width="1.0884" stroke-linejoin="bevel" stroke-miterlimit="10" d="M181,31.2h-0.695
			h-0.544c-2.004,0-3.628,1.624-3.628,3.628v1.088v122.259v1.088c0,2.003,1.624,3.628,3.628,3.628h0.544H181"/>
		<path d="M180.305,30.655H195v1.088h-14.695V30.655z"/>
		<path fill="none" stroke="#000000" stroke-width="1.0884" stroke-linejoin="bevel" stroke-miterlimit="10" d="M200,19.228h-0.468
			h-0.544c-2.004,0-3.628,1.625-3.628,3.628v1.088v14.511v1.089c0,2.003,1.624,3.627,3.628,3.627h0.544H200"/>
		<path d="M199.532,18.684h14.512v1.088h-14.512V18.684z"/>
	</g>
	<g>
		<text transform="matrix(1 0 0 1 217.6714 23.3438)" font-family="'Calibri-Italic'" font-size="17">U. longidigitum</text>
		<path d="M199.532,42.627h14.512v1.088h-14.512V42.627z"/>
		<text transform="matrix(1 0 0 1 217.6714 47.2881)" font-family="'Calibri-Italic'" font-size="17">U. seismella</text>
		<path d="M176,78.543h19v1.089h-19V78.543z"/>
		<path fill="none" stroke="#000000" stroke-width="1.0884" stroke-linejoin="bevel" stroke-miterlimit="10" d="M200,67.115h-0.468
			h-0.544c-2.004,0-3.628,1.625-3.628,3.628v1.088v14.512v1.088c0,2.003,1.624,3.628,3.628,3.628h0.544H200"/>
		<path d="M199.532,66.571h14.512v1.088h-14.512V66.571z"/>
		<text transform="matrix(1 0 0 1 217.6714 71.2314)" font-family="'Calibri-Italic'" font-size="17">U. signata</text>
		<path d="M199.532,90.515h14.512v1.088h-14.512V90.515z"/>
		<text transform="matrix(1 0 0 1 217.6714 95.1758)" font-family="'Calibri-Italic'" font-size="17">U. bellator</text>
		<path d="M176,114.459h38.044v1.088H176V114.459z"/>
		<text transform="matrix(1 0 0 1 217.6714 119.1191)" font-family="'Calibri-Italic'" font-size="17">U. polita</text>
		<path d="M176,138.403h38.044v1.088H176V138.403z"/>
		<text transform="matrix(1 0 0 1 217.6714 143.0635)" font-family="'Calibri-Italic'" font-size="17">U. elegans</text>
		<path d="M180.305,162.347h33.739v1.088h-33.739V162.347z"/>
		<text transform="matrix(1 0 0 1 217.6714 167.0078)" font-family="'Calibri-Italic'" font-size="17">U. hirsutimanus</text>
		<path d="M141.849,338.933H157v1.089h-15.151V338.933z"/>
		<path fill="none" stroke="#000000" stroke-width="1.0884" stroke-linejoin="bevel" stroke-miterlimit="10" d="M162,204.792h-0.923
			h-0.544c-2.003,0-3.628,1.625-3.628,3.628v1.088v259.937v1.088c0,2.004,1.625,3.628,3.628,3.628h0.544H162"/>
		<path d="M161.077,204.249H176v1.088h-14.923V204.249z"/>
		<path fill="none" stroke="#000000" stroke-width="1.0884" stroke-linejoin="bevel" stroke-miterlimit="10" d="M181,186.835h-0.695
			h-0.544c-2.004,0-3.628,1.624-3.628,3.628v1.088v26.483v1.089c0,2.003,1.624,3.627,3.628,3.627h0.544H181"/>
		<path d="M180.305,186.291h33.739v1.088h-33.739V186.291z"/>
		<text transform="matrix(1 0 0 1 217.6714 190.9512)" font-family="'Calibri-Italic'" font-size="17">U. urvillei</text>
		<path d="M180.305,222.207H195v1.088h-14.695V222.207z"/>
		<path fill="none" stroke="#000000" stroke-width="1.0884" stroke-linejoin="bevel" stroke-miterlimit="10" d="M200,210.779h-0.468
			h-0.544c-2.004,0-3.628,1.624-3.628,3.628v1.088v14.511v1.088c0,2.003,1.624,3.628,3.628,3.628h0.544H200"/>
		<path d="M199.532,210.234h14.512v1.088h-14.512V210.234z"/>
		<text transform="matrix(1 0 0 1 217.6714 214.8955)" font-family="'Calibri-Italic'" font-size="17">U. dussumieri</text>
		<path d="M199.532,234.178h14.512v1.088h-14.512V234.178z"/>
		<text transform="matrix(1 0 0 1 217.6714 238.8389)" font-family="'Calibri-Italic'" font-size="17">U. paradussumieri</text>
		<path d="M157,258.122h57.044v1.089H157V258.122z"/>
		<text transform="matrix(1 0 0 1 217.6714 262.7832)" font-family="'Calibri-Italic'" font-size="17">U. rosea</text>
		<path d="M157,282.066h57.044v1.088H157V282.066z"/>
		<text transform="matrix(1 0 0 1 217.6714 286.7266)" font-family="'Calibri-Italic'" font-size="17">U. flammula</text>
		<path d="M157,317.982h38v1.088h-38V317.982z"/>
		<path fill="none" stroke="#000000" stroke-width="1.0884" stroke-linejoin="bevel" stroke-miterlimit="10" d="M200,306.555h-0.468
			h-0.544c-2.004,0-3.628,1.624-3.628,3.628v1.088v14.512v1.088c0,2.004,1.624,3.628,3.628,3.628h0.544H200"/>
		<path d="M199.532,306.01h14.512v1.089h-14.512V306.01z"/>
		<text transform="matrix(1 0 0 1 217.6714 310.6709)" font-family="'Calibri-Italic'" font-size="17">U. typhoni</text>
		<path d="M199.532,329.954h14.512v1.088h-14.512V329.954z"/>
		<text transform="matrix(1 0 0 1 217.6714 334.6143)" font-family="'Calibri-Italic'" font-size="17">U. demani</text>
		<path d="M157,365.87h38v1.088h-38V365.87z"/>
		<path fill="none" stroke="#000000" stroke-width="1.0884" stroke-linejoin="bevel" stroke-miterlimit="10" d="M200,354.442h-0.468
			h-0.544c-2.004,0-3.628,1.624-3.628,3.628v1.088v14.512v1.088c0,2.004,1.624,3.628,3.628,3.628h0.544H200"/>
		<path d="M199.532,353.897h14.512v1.089h-14.512V353.897z"/>
		<text transform="matrix(1 0 0 1 217.6714 358.5586)" font-family="'Calibri-Italic'" font-size="17">U. rhizophorae</text>
		<path d="M199.532,377.842h14.512v1.088h-14.512V377.842z"/>
		<text transform="matrix(1 0 0 1 217.6714 382.502)" font-family="'Calibri-Italic'" font-size="17">U. acuta</text>
		<path d="M157,431.716h19v1.088h-19V431.716z"/>
		<path fill="none" stroke="#000000" stroke-width="1.0884" stroke-linejoin="bevel" stroke-miterlimit="10" d="M181,414.302h-0.695
			h-0.544c-2.004,0-3.628,1.624-3.628,3.628v1.088v26.483v1.089c0,2.004,1.624,3.628,3.628,3.628h0.544H181"/>
		<path d="M180.305,413.758H195v1.088h-14.695V413.758z"/>
		<path fill="none" stroke="#000000" stroke-width="1.0884" stroke-linejoin="bevel" stroke-miterlimit="10" d="M200,402.33h-0.468
			h-0.544c-2.004,0-3.628,1.624-3.628,3.628v1.088v14.512v1.088c0,2.004,1.624,3.628,3.628,3.628h0.544H200"/>
		<path d="M199.532,401.785h14.512v1.089h-14.512V401.785z"/>
		<text transform="matrix(1 0 0 1 217.6714 406.4463)" font-family="'Calibri-Italic'" font-size="17">U. arcuata</text>
		<path d="M199.532,425.729h14.512v1.089h-14.512V425.729z"/>
		<text transform="matrix(1 0 0 1 217.6714 430.3896)" font-family="'Calibri-Italic'" font-size="17">U. forcipata</text>
		<path d="M180.305,449.674h33.739v1.088h-33.739V449.674z"/>
		<text transform="matrix(1 0 0 1 217.6714 454.334)" font-family="'Calibri-Italic'" font-size="17">U. coarctata</text>
		<path d="M161.077,473.617h52.967v1.089h-52.967V473.617z"/>
		<text transform="matrix(1 0 0 1 217.6714 478.2773)" font-family="'Calibri-Italic'" font-size="17">U. capricornis</text>
		<path d="M122.622,497.562h91.422v1.088h-91.422V497.562z"/>
		<text transform="matrix(1 0 0 1 217.6714 502.2217)" font-family="'Calibri-Italic'" font-size="17">U. formosensis</text>
		<path d="M103.394,546.945H138v1.089h-34.606V546.945z"/>
		<path fill="none" stroke="#000000" stroke-width="1.0884" stroke-linejoin="bevel" stroke-miterlimit="10" d="M142,522.049h-0.151
			h-0.544c-2.004,0-3.628,1.625-3.628,3.628v1.089v41.448v1.088c0,2.004,1.624,3.628,3.628,3.628h0.544H142"/>
		<path d="M141.849,521.505h72.195v1.089h-72.195V521.505z"/>
		<text transform="matrix(1 0 0 1 217.6714 526.166)" font-family="'Calibri-Italic'" font-size="17">U. sindensis</text>
		<path d="M141.849,572.386H157v1.089h-15.151V572.386z"/>
		<path fill="none" stroke="#000000" stroke-width="1.0884" stroke-linejoin="bevel" stroke-miterlimit="10" d="M162,545.993h-0.923
			h-0.544c-2.003,0-3.628,1.624-3.628,3.628v1.088v44.441v1.089c0,2.003,1.625,3.628,3.628,3.628h0.544H162"/>
		<path d="M161.077,545.449h52.967v1.088h-52.967V545.449z"/>
		<text transform="matrix(1 0 0 1 217.6714 550.1094)" font-family="'Calibri-Italic'" font-size="17">U. chlorophthalmus</text>
		<path d="M161.077,599.323H176v1.088h-14.923V599.323z"/>
		<path fill="none" stroke="#000000" stroke-width="1.0884" stroke-linejoin="bevel" stroke-miterlimit="10" d="M181,581.909h-0.695
			h-0.544c-2.004,0-3.628,1.624-3.628,3.628v1.088v26.483v1.089c0,2.003,1.624,3.628,3.628,3.628h0.544H181"/>
		<path d="M180.305,581.365H195v1.088h-14.695V581.365z"/>
		<path fill="none" stroke="#000000" stroke-width="1.0884" stroke-linejoin="bevel" stroke-miterlimit="10" d="M200,569.938h-0.468
			h-0.544c-2.004,0-3.628,1.624-3.628,3.627v1.089v14.512v1.088c0,2.004,1.624,3.628,3.628,3.628h0.544H200"/>
		<path d="M199.532,569.393h14.512v1.089h-14.512V569.393z"/>
		<text transform="matrix(1 0 0 1 217.6714 574.0537)" font-family="'Calibri-Italic'" font-size="17">U. crassipes</text>
		<path d="M199.532,593.337h14.512v1.088h-14.512V593.337z"/>
		<text transform="matrix(1 0 0 1 217.6714 597.9971)" font-family="'Calibri-Italic'" font-size="17">U. boninensis</text>
		<path d="M180.305,617.28h33.739v1.089h-33.739V617.28z"/>
		<text transform="matrix(1 0 0 1 217.6714 621.9414)" font-family="'Calibri-Italic'" font-size="17">U. splendida</text>
		<path d="M84.167,767.678H118v1.089H84.167V767.678z"/>
		<path fill="none" stroke="#000000" stroke-width="1.0884" stroke-linejoin="bevel" stroke-miterlimit="10" d="M123,703.125h-0.378
			h-0.544c-2.004,0-3.628,1.624-3.628,3.628v1.088v120.763v1.088c0,2.004,1.624,3.629,3.628,3.629h0.544H123"/>
		<path d="M122.622,702.581H138v1.088h-15.378V702.581z"/>
		<path fill="none" stroke="#000000" stroke-width="1.0884" stroke-linejoin="bevel" stroke-miterlimit="10" d="M142,641.769h-0.151
			h-0.544c-2.004,0-3.628,1.624-3.628,3.628v1.089v113.279v1.089c0,2.003,1.624,3.628,3.628,3.628h0.544H142"/>
		<path d="M141.849,641.225h72.195v1.088h-72.195V641.225z"/>
		<text transform="matrix(1 0 0 1 217.6714 645.8848)" font-family="'Calibri-Italic'" font-size="17">U. tetragonon</text>
		<path d="M141.849,763.938H157v1.088h-15.151V763.938z"/>
		<path fill="none" stroke="#000000" stroke-width="1.0884" stroke-linejoin="bevel" stroke-miterlimit="10" d="M162,731.559h-0.923
			h-0.544c-2.003,0-3.628,1.624-3.628,3.628v1.088v56.413v1.089c0,2.003,1.625,3.628,3.628,3.628h0.544H162"/>
		<path d="M161.077,731.014H176v1.089h-14.923V731.014z"/>
		<path fill="none" stroke="#000000" stroke-width="1.0884" stroke-linejoin="bevel" stroke-miterlimit="10" d="M181,701.629h-0.695
			h-0.544c-2.004,0-3.628,1.624-3.628,3.627v1.089v50.427v1.089c0,2.004,1.624,3.628,3.628,3.628h0.544H181"/>
		<path d="M180.305,701.084H195v1.089h-14.695V701.084z"/>
		<path fill="none" stroke="#000000" stroke-width="1.0884" stroke-linejoin="bevel" stroke-miterlimit="10" d="M200,665.713h-0.468
			h-0.544c-2.004,0-3.628,1.624-3.628,3.628v1.088v62.399v1.088c0,2.004,1.624,3.628,3.628,3.628h0.544H200"/>
		<path d="M199.532,665.169h14.512v1.088h-14.512V665.169z"/>
		<text transform="matrix(1 0 0 1 217.6714 669.8291)" font-family="'Calibri-Italic'" font-size="17">U. vomeris</text>
		<path d="M195,689.112h19.044v1.089H195V689.112z"/>
		<text transform="matrix(1 0 0 1 217.6714 693.7725)" font-family="'Calibri-Italic'" font-size="17">U. vocans</text>
		<path d="M195,713.057h19.044v1.088H195V713.057z"/>
		<text transform="matrix(1 0 0 1 217.6714 717.7168)" font-family="'Calibri-Italic'" font-size="17">U. dampieri</text>
		<path d="M199.532,737h14.512v1.089h-14.512V737z"/>
		<text transform="matrix(1 0 0 1 217.6714 741.6611)" font-family="'Calibri-Italic'" font-size="17">U. borealis</text>
		<path d="M180.305,760.944h33.739v1.088h-33.739V760.944z"/>
		<text transform="matrix(1 0 0 1 217.6714 765.6045)" font-family="'Calibri-Italic'" font-size="17">U. hesperiae</text>
		<path d="M161.077,796.859H195v1.089h-33.923V796.859z"/>
		<path fill="none" stroke="#000000" stroke-width="1.0884" stroke-linejoin="bevel" stroke-miterlimit="10" d="M200,785.432h-0.468
			h-0.544c-2.004,0-3.628,1.625-3.628,3.628v1.089v14.512v1.088c0,2.004,1.624,3.628,3.628,3.628h0.544H200"/>
		<path d="M199.532,784.888h14.512v1.089h-14.512V784.888z"/>
		<text transform="matrix(1 0 0 1 217.6714 789.5488)" font-family="'Calibri-Italic'" font-size="17">U. jocelynae</text>
		<path d="M199.532,808.832h14.512v1.088h-14.512V808.832z"/>
		<text transform="matrix(1 0 0 1 217.6714 813.4922)" font-family="'Calibri-Italic'" font-size="17">U. neocultrimana</text>
		<path d="M122.622,832.775h91.422v1.089h-91.422V832.775z"/>
		<text transform="matrix(1 0 0 1 217.6714 837.4365)" font-family="'Calibri-Italic'" font-size="17">U. inversa</text>
		<path d="M64.938,971.949H138v1.089H64.938V971.949z"/>
		<path fill="none" stroke="#000000" stroke-width="1.0884" stroke-linejoin="bevel" stroke-miterlimit="10" d="M142,908.145h-0.151
			h-0.544c-2.004,0-3.628,1.624-3.628,3.628v1.088v119.267v1.088c0,2.004,1.624,3.628,3.628,3.628h0.544H142"/>
		<path d="M141.849,907.601H157v1.088h-15.151V907.601z"/>
		<path fill="none" stroke="#000000" stroke-width="1.0884" stroke-linejoin="bevel" stroke-miterlimit="10" d="M162,857.264h-0.923
			h-0.544c-2.003,0-3.628,1.624-3.628,3.628v1.088v92.329v1.089c0,2.003,1.625,3.628,3.628,3.628h0.544H162"/>
		<path d="M161.077,856.72h52.967v1.088h-52.967V856.72z"/>
		<text transform="matrix(1 0 0 1 217.6714 861.3799)" font-family="'Calibri-Italic'" font-size="17">U. cryptica</text>
		<path d="M157,880.663h57.044v1.089H157V880.663z"/>
		<text transform="matrix(1 0 0 1 217.6714 885.3242)" font-family="'Calibri-Italic'" font-size="17">U. mjoebergi</text>
		<path d="M161.077,958.481H176v1.088h-14.923V958.481z"/>
		<path fill="none" stroke="#000000" stroke-width="1.0884" stroke-linejoin="bevel" stroke-miterlimit="10" d="M181,929.096h-0.695
			h-0.544c-2.004,0-3.628,1.624-3.628,3.627v1.089v50.427v1.089c0,2.004,1.624,3.628,3.628,3.628h0.544H181"/>
		<path d="M180.305,928.551H195v1.089h-14.695V928.551z"/>
		<path fill="none" stroke="#000000" stroke-width="1.0884" stroke-linejoin="bevel" stroke-miterlimit="10" d="M200,905.151h-0.468
			h-0.544c-2.004,0-3.628,1.624-3.628,3.628v1.088v38.456v1.088c0,2.004,1.624,3.628,3.628,3.628h0.544H200"/>
		<path d="M199.532,904.607h14.512v1.088h-14.512V904.607z"/>
		<text transform="matrix(1 0 0 1 217.6714 909.2676)" font-family="'Calibri-Italic'" font-size="17">U. iranica</text>
		<path d="M195,928.551h19.044v1.089H195V928.551z"/>
		<text transform="matrix(1 0 0 1 217.6714 933.2119)" font-family="'Calibri-Italic'" font-size="17">U. annulipes</text>
		<path d="M199.532,952.495h14.512v1.088h-14.512V952.495z"/>
		<text transform="matrix(1 0 0 1 217.6714 957.1563)" font-family="'Calibri-Italic'" font-size="17">U. albimana</text>
		<path d="M180.305,988.411H195v1.088h-14.695V988.411z"/>
		<path fill="none" stroke="#000000" stroke-width="1.0884" stroke-linejoin="bevel" stroke-miterlimit="10" d="M200,976.983h-0.468
			h-0.544c-2.004,0-3.628,1.624-3.628,3.627v1.089v14.512v1.088c0,2.004,1.624,3.628,3.628,3.628h0.544H200"/>
		<path d="M199.532,976.438h14.512v1.089h-14.512V976.438z"/>
		<text transform="matrix(1 0 0 1 217.6714 981.0996)" font-family="'Calibri-Italic'" font-size="17">U. lactea</text>
		<path d="M199.532,1000.383h14.512v1.088h-14.512V1000.383z"/>
		<text transform="matrix(1 0 0 1 217.6714 1005.043)" font-family="'Calibri-Italic'" font-size="17">U. perplexa</text>
		<path d="M141.849,1036.299H195v1.088h-53.151V1036.299z"/>
		<path fill="none" stroke="#000000" stroke-width="1.0884" stroke-linejoin="bevel" stroke-miterlimit="10" d="M200,1024.871
			h-0.468h-0.544c-2.004,0-3.628,1.624-3.628,3.627v1.089v14.512v1.088c0,2.004,1.624,3.628,3.628,3.628h0.544H200"/>
		<path d="M199.532,1024.326h14.512v1.089h-14.512V1024.326z"/>
		<text transform="matrix(1 0 0 1 217.6714 1028.9873)" font-family="'Calibri-Italic'" font-size="17">U. triangularis</text>
		<path d="M199.532,1048.271h14.512v1.088h-14.512V1048.271z"/>
		<text transform="matrix(1 0 0 1 217.6714 1052.9307)" font-family="'Calibri-Italic'" font-size="17">U. bengali</text>
		<path d="M45.711,1646.867H157v1.089H45.711V1646.867z"/>
		<path fill="none" stroke="#000000" stroke-width="1.0884" stroke-linejoin="bevel" stroke-miterlimit="10" d="M162,1360.085
			h-0.923h-0.544c-2.003,0-3.628,1.624-3.628,3.628v1.088v565.222v1.088c0,2.004,1.625,3.628,3.628,3.628h0.544H162"/>
		<path d="M161.077,1359.541H176v1.088h-14.923V1359.541z"/>
		<path fill="none" stroke="#000000" stroke-width="1.0884" stroke-linejoin="bevel" stroke-miterlimit="10" d="M181,1072.759
			h-0.695h-0.544c-2.004,0-3.628,1.624-3.628,3.628v1.088v565.221v1.089c0,2.003,1.624,3.628,3.628,3.628h0.544H181"/>
		<path d="M180.305,1072.215h33.739v1.088h-33.739V1072.215z"/>
		<text transform="matrix(1 0 0 1 217.6714 1076.875)" font-family="'Calibri-Italic'" font-size="17">U. batuenta</text>
		<path d="M176,1096.158h38.044v1.088H176V1096.158z"/>
		<text transform="matrix(1 0 0 1 217.6714 1100.8184)" font-family="'Calibri-Italic'" font-size="17">U. argillicola</text>
		<path d="M176,1120.102h38.044v1.089H176V1120.102z"/>
		<text transform="matrix(1 0 0 1 217.6714 1124.7627)" font-family="'Calibri-Italic'" font-size="17">U. beebei</text>
		<path d="M176,1156.018h19v1.089h-19V1156.018z"/>
		<path fill="none" stroke="#000000" stroke-width="1.0884" stroke-linejoin="bevel" stroke-miterlimit="10" d="M200,1144.59h-0.468
			h-0.544c-2.004,0-3.628,1.624-3.628,3.628v1.088v14.512v1.089c0,2.003,1.624,3.627,3.628,3.627h0.544H200"/>
		<path d="M199.532,1144.046h14.512v1.088h-14.512V1144.046z"/>
		<text transform="matrix(1 0 0 1 217.6714 1148.7061)" font-family="'Calibri-Italic'" font-size="17">U. crenulata</text>
		<path d="M199.532,1167.989h14.512v1.089h-14.512V1167.989z"/>
		<text transform="matrix(1 0 0 1 217.6714 1172.6504)" font-family="'Calibri-Italic'" font-size="17">U. coloradensis</text>
		<path d="M176,1191.934h38.044v1.088H176V1191.934z"/>
		<text transform="matrix(1 0 0 1 217.6714 1196.5938)" font-family="'Calibri-Italic'" font-size="17">U. limicola</text>
		<path d="M176,1215.877h38.044v1.089H176V1215.877z"/>
		<text transform="matrix(1 0 0 1 217.6714 1220.5381)" font-family="'Calibri-Italic'" font-size="17">U. leptodactyla</text>
		<path d="M176,1239.821h38.044v1.088H176V1239.821z"/>
		<text transform="matrix(1 0 0 1 217.6714 1244.4814)" font-family="'Calibri-Italic'" font-size="17">U. latimanus</text>
		<path d="M176,1275.737h19v1.088h-19V1275.737z"/>
		<path fill="none" stroke="#000000" stroke-width="1.0884" stroke-linejoin="bevel" stroke-miterlimit="10" d="M200,1264.309
			h-0.468h-0.544c-2.004,0-3.628,1.625-3.628,3.628v1.089v14.512v1.088c0,2.004,1.624,3.628,3.628,3.628h0.544H200"/>
		<path d="M199.532,1263.765h14.512v1.089h-14.512V1263.765z"/>
		<text transform="matrix(1 0 0 1 217.6714 1268.4258)" font-family="'Calibri-Italic'" font-size="17">U. terpsichores</text>
		<path d="M199.532,1287.709h14.512v1.088h-14.512V1287.709z"/>
		<text transform="matrix(1 0 0 1 217.6714 1292.3691)" font-family="'Calibri-Italic'" font-size="17">U. musica</text>
		<path d="M176,1311.652h38.044v1.089H176V1311.652z"/>
		<text transform="matrix(1 0 0 1 217.6714 1316.3135)" font-family="'Calibri-Italic'" font-size="17">U. oerstedi</text>
		<path d="M176,1335.597h38.044v1.088H176V1335.597z"/>
		<text transform="matrix(1 0 0 1 217.6714 1340.2568)" font-family="'Calibri-Italic'" font-size="17">U. uruguayensis</text>
		<path d="M176,1359.54h38.044v1.089H176V1359.54z"/>
		<text transform="matrix(1 0 0 1 217.6714 1364.2012)" font-family="'Calibri-Italic'" font-size="17">U. tomentosa</text>
		<path d="M176,1383.484h38.044v1.088H176V1383.484z"/>
		<text transform="matrix(1 0 0 1 217.6714 1388.1445)" font-family="'Calibri-Italic'" font-size="17">U. tenuipedis</text>
		<path d="M176,1407.428h38.044v1.089H176V1407.428z"/>
		<text transform="matrix(1 0 0 1 217.6714 1412.0879)" font-family="'Calibri-Italic'" font-size="17">U. saltitanta</text>
		<path d="M176,1431.372h38.044v1.088H176V1431.372z"/>
		<text transform="matrix(1 0 0 1 217.6714 1436.0322)" font-family="'Calibri-Italic'" font-size="17">U. tallanica</text>
		<path d="M176,1455.315h38.044v1.089H176V1455.315z"/>
		<text transform="matrix(1 0 0 1 217.6714 1459.9766)" font-family="'Calibri-Italic'" font-size="17">U. stenodactylus</text>
		<path d="M176,1491.231h19v1.088h-19V1491.231z"/>
		<path fill="none" stroke="#000000" stroke-width="1.0884" stroke-linejoin="bevel" stroke-miterlimit="10" d="M200,1479.804
			h-0.468h-0.544c-2.004,0-3.628,1.624-3.628,3.628v1.088v14.512v1.088c0,2.004,1.624,3.628,3.628,3.628h0.544H200"/>
		<path d="M199.532,1479.26h14.512v1.088h-14.512V1479.26z"/>
		<text transform="matrix(1 0 0 1 217.6714 1483.9199)" font-family="'Calibri-Italic'" font-size="17">U. spinicarpa</text>
		<path d="M199.532,1503.203h14.512v1.088h-14.512V1503.203z"/>
		<text transform="matrix(1 0 0 1 217.6714 1507.8633)" font-family="'Calibri-Italic'" font-size="17">U. speciosa</text>
		<path d="M176,1527.147h38.044v1.088H176V1527.147z"/>
		<text transform="matrix(1 0 0 1 217.6714 1531.8076)" font-family="'Calibri-Italic'" font-size="17">U. festae</text>
		<path d="M176,1551.091h38.044v1.089H176V1551.091z"/>
		<text transform="matrix(1 0 0 1 217.6714 1555.752)" font-family="'Calibri-Italic'" font-size="17">U. helleri</text>
		<path d="M176,1575.035h38.044v1.088H176V1575.035z"/>
		<text transform="matrix(1 0 0 1 217.6714 1579.6953)" font-family="'Calibri-Italic'" font-size="17">U. dorotheae</text>
		<path d="M176,1598.979h38.044v1.088H176V1598.979z"/>
		<text transform="matrix(1 0 0 1 217.6714 1603.6387)" font-family="'Calibri-Italic'" font-size="17">U. deichmanni</text>
		<path d="M176,1622.922h38.044v1.089H176V1622.922z"/>
		<text transform="matrix(1 0 0 1 217.6714 1627.583)" font-family="'Calibri-Italic'" font-size="17">U. cumulanta</text>
		<path d="M180.305,1646.866h33.739v1.088h-33.739V1646.866z"/>
		<text transform="matrix(1 0 0 1 217.6714 1651.5264)" font-family="'Calibri-Italic'" font-size="17">U. inaequalis</text>
		<path d="M161.077,1934.194H176v1.088h-14.923V1934.194z"/>
		<path fill="none" stroke="#000000" stroke-width="1.0884" stroke-linejoin="bevel" stroke-miterlimit="10" d="M181,1671.355
			h-0.695h-0.544c-2.004,0-3.628,1.624-3.628,3.628v1.088v517.333v1.089c0,2.004,1.624,3.628,3.628,3.628h0.544H181"/>
		<path d="M180.305,1670.812h33.739v1.088h-33.739V1670.812z"/>
		<text transform="matrix(1 0 0 1 217.6714 1675.4727)" font-family="'Calibri-Italic'" font-size="17">U. zacae</text>
		<path d="M176,1694.755h38.044v1.089H176V1694.755z"/>
		<text transform="matrix(1 0 0 1 217.6714 1699.416)" font-family="'Calibri-Italic'" font-size="17">U. subcylindrica</text>
		<path d="M176,1730.671h19v1.089h-19V1730.671z"/>
		<path fill="none" stroke="#000000" stroke-width="1.0884" stroke-linejoin="bevel" stroke-miterlimit="10" d="M200,1719.243
			h-0.468h-0.544c-2.004,0-3.628,1.624-3.628,3.628v1.088v14.512v1.088c0,2.004,1.624,3.628,3.628,3.628h0.544H200"/>
		<path d="M199.532,1718.699h14.512v1.088h-14.512V1718.699z"/>
		<text transform="matrix(1 0 0 1 217.6714 1723.3594)" font-family="'Calibri-Italic'" font-size="17">U. rapax</text>
		<path d="M199.532,1742.643h14.512v1.089h-14.512V1742.643z"/>
		<text transform="matrix(1 0 0 1 217.6714 1747.3027)" font-family="'Calibri-Italic'" font-size="17">U. virens</text>
		<path d="M176,1766.587h38.044v1.088H176V1766.587z"/>
		<text transform="matrix(1 0 0 1 217.6714 1771.248)" font-family="'Calibri-Italic'" font-size="17">U. pygmaea</text>
		<path d="M176,1802.503h19v1.088h-19V1802.503z"/>
		<path fill="none" stroke="#000000" stroke-width="1.0884" stroke-linejoin="bevel" stroke-miterlimit="10" d="M200,1791.074
			h-0.468h-0.544c-2.004,0-3.628,1.625-3.628,3.628v1.089v14.512v1.088c0,2.004,1.624,3.628,3.628,3.628h0.544H200"/>
		<path d="M199.532,1790.53h14.512v1.089h-14.512V1790.53z"/>
		<text transform="matrix(1 0 0 1 217.6714 1795.1914)" font-family="'Calibri-Italic'" font-size="17">U. panacea</text>
		<path d="M199.532,1814.475h14.512v1.088h-14.512V1814.475z"/>
		<text transform="matrix(1 0 0 1 217.6714 1819.1348)" font-family="'Calibri-Italic'" font-size="17">U. pugilator</text>
		<path d="M176,1838.418h38.044v1.089H176V1838.418z"/>
		<text transform="matrix(1 0 0 1 217.6714 1843.0791)" font-family="'Calibri-Italic'" font-size="17">U. pugnax</text>
		<path d="M176,1862.362h38.044v1.088H176V1862.362z"/>
		<text transform="matrix(1 0 0 1 217.6714 1867.0234)" font-family="'Calibri-Italic'" font-size="17">U. osa</text>
		<path d="M176,1886.306h38.044v1.089H176V1886.306z"/>
		<text transform="matrix(1 0 0 1 217.6714 1890.9668)" font-family="'Calibri-Italic'" font-size="17">U. mordax</text>
		<path d="M176,1910.25h38.044v1.088H176V1910.25z"/>
		<text transform="matrix(1 0 0 1 217.6714 1914.9102)" font-family="'Calibri-Italic'" font-size="17">U. minax</text>
		<path d="M176,1934.193h38.044v1.088H176V1934.193z"/>
		<text transform="matrix(1 0 0 1 217.6714 1938.8535)" font-family="'Calibri-Italic'" font-size="17">U. marguerita</text>
		<path d="M176,1958.137h38.044v1.089H176V1958.137z"/>
		<text transform="matrix(1 0 0 1 217.6714 1962.7979)" font-family="'Calibri-Italic'" font-size="17">U. longisignalis</text>
		<path d="M176,1982.081h38.044v1.088H176V1982.081z"/>
		<text transform="matrix(1 0 0 1 217.6714 1986.7422)" font-family="'Calibri-Italic'" font-size="17">U. brevifrons</text>
		<path d="M176,2006.024h38.044v1.089H176V2006.024z"/>
		<text transform="matrix(1 0 0 1 217.6714 2010.6855)" font-family="'Calibri-Italic'" font-size="17">U. burgersi</text>
		<path d="M176,2041.94h19v1.089h-19V2041.94z"/>
		<path fill="none" stroke="#000000" stroke-width="1.0884" stroke-linejoin="bevel" stroke-miterlimit="10" d="M200,2030.513
			h-0.468h-0.544c-2.004,0-3.628,1.624-3.628,3.628v1.088v14.512v1.089c0,2.003,1.624,3.628,3.628,3.628h0.544H200"/>
		<path d="M199.532,2029.969h14.512v1.088h-14.512V2029.969z"/>
		<text transform="matrix(1 0 0 1 217.6714 2034.6289)" font-family="'Calibri-Italic'" font-size="17">U. vocator</text>
		<path d="M199.532,2053.912h14.512v1.089h-14.512V2053.912z"/>
		<text transform="matrix(1 0 0 1 217.6714 2058.5732)" font-family="'Calibri-Italic'" font-size="17">U. ecuadoriensis</text>
		<path d="M176,2089.828h19v1.088h-19V2089.828z"/>
		<path fill="none" stroke="#000000" stroke-width="1.0884" stroke-linejoin="bevel" stroke-miterlimit="10" d="M200,2078.4h-0.468
			h-0.544c-2.004,0-3.628,1.624-3.628,3.628v1.089v14.511v1.089c0,2.004,1.624,3.627,3.628,3.627h0.544H200"/>
		<path d="M199.532,2077.856h14.512v1.088h-14.512V2077.856z"/>
		<text transform="matrix(1 0 0 1 217.6714 2082.5166)" font-family="'Calibri-Italic'" font-size="17">U. galapagensis</text>
		<path d="M199.532,2101.8h14.512v1.089h-14.512V2101.8z"/>
		<text transform="matrix(1 0 0 1 217.6714 2106.4609)" font-family="'Calibri-Italic'" font-size="17">U. herradurensis</text>
		<path d="M176,2125.744h38.044v1.088H176V2125.744z"/>
		<text transform="matrix(1 0 0 1 217.6714 2130.4043)" font-family="'Calibri-Italic'" font-size="17">U. panamensis</text>
		<path d="M176,2161.659h19v1.089h-19V2161.659z"/>
		<path fill="none" stroke="#000000" stroke-width="1.0884" stroke-linejoin="bevel" stroke-miterlimit="10" d="M200,2150.231
			h-0.468h-0.544c-2.004,0-3.628,1.624-3.628,3.628v1.089v14.511v1.089c0,2.004,1.624,3.628,3.628,3.628h0.544H200"/>
		<path d="M199.532,2149.688h14.512v1.088h-14.512V2149.688z"/>
		<text transform="matrix(1 0 0 1 217.6714 2154.3486)" font-family="'Calibri-Italic'" font-size="17">U. thayeri</text>
		<path d="M199.532,2173.631h14.512v1.089h-14.512V2173.631z"/>
		<text transform="matrix(1 0 0 1 217.6714 2178.292)" font-family="'Calibri-Italic'" font-size="17">U. umbratila</text>
		<path d="M180.305,2197.575h33.739v1.089h-33.739V2197.575z"/>
		<text transform="matrix(1 0 0 1 217.6714 2202.2363)" font-family="'Calibri-Italic'" font-size="17">U. victoriana</text>
		<path d="M26.483,2278.388H138v1.088H26.483V2278.388z"/>
		<path fill="none" stroke="#000000" stroke-width="1.0884" stroke-linejoin="bevel" stroke-miterlimit="10" d="M142,2222.064
			h-0.151h-0.544c-2.004,0-3.628,1.625-3.628,3.629v1.088v104.301v1.089c0,2.003,1.624,3.628,3.628,3.628h0.544H142"/>
		<path d="M141.849,2221.521h72.195v1.089h-72.195V2221.521z"/>
		<text transform="matrix(1 0 0 1 217.6714 2226.1816)" font-family="'Calibri-Italic'" font-size="17">U. tangeri</text>
		<path d="M141.849,2335.254H157v1.089h-15.151V2335.254z"/>
		<path fill="none" stroke="#000000" stroke-width="1.0884" stroke-linejoin="bevel" stroke-miterlimit="10" d="M162,2246.009
			h-0.923h-0.544c-2.003,0-3.628,1.624-3.628,3.628v1.088v170.147v1.088c0,2.004,1.625,3.628,3.628,3.628h0.544H162"/>
		<path d="M161.077,2245.465h52.967v1.088h-52.967V2245.465z"/>
		<text transform="matrix(1 0 0 1 217.6714 2250.125)" font-family="'Calibri-Italic'" font-size="17">U. stylifera</text>
		<path d="M157,2269.408h57.044v1.088H157V2269.408z"/>
		<text transform="matrix(1 0 0 1 217.6714 2274.0693)" font-family="'Calibri-Italic'" font-size="17">U. heteropleura</text>
		<path d="M157,2293.352h57.044v1.089H157V2293.352z"/>
		<text transform="matrix(1 0 0 1 217.6714 2298.0127)" font-family="'Calibri-Italic'" font-size="17">U. major</text>
		<path d="M157,2317.296h57.044v1.089H157V2317.296z"/>
		<text transform="matrix(1 0 0 1 217.6714 2321.957)" font-family="'Calibri-Italic'" font-size="17">U. intermedia</text>
		<path d="M157,2359.197h19v1.089h-19V2359.197z"/>
		<path fill="none" stroke="#000000" stroke-width="1.0884" stroke-linejoin="bevel" stroke-miterlimit="10" d="M181,2341.784
			h-0.695h-0.544c-2.004,0-3.628,1.624-3.628,3.628v1.088v26.483v1.089c0,2.004,1.624,3.627,3.628,3.627h0.544H181"/>
		<path d="M180.305,2341.24h33.739v1.088h-33.739V2341.24z"/>
		<text transform="matrix(1 0 0 1 217.6714 2345.9004)" font-family="'Calibri-Italic'" font-size="17">U. ornata</text>
		<path d="M180.305,2377.155H195v1.089h-14.695V2377.155z"/>
		<path fill="none" stroke="#000000" stroke-width="1.0884" stroke-linejoin="bevel" stroke-miterlimit="10" d="M200,2365.728
			h-0.468h-0.544c-2.004,0-3.628,1.624-3.628,3.628v1.089v14.511v1.089c0,2.004,1.624,3.628,3.628,3.628h0.544H200"/>
		<path d="M199.532,2365.184h14.512v1.088h-14.512V2365.184z"/>
		<text transform="matrix(1 0 0 1 217.6714 2369.8438)" font-family="'Calibri-Italic'" font-size="17">U. insignis</text>
		<path d="M199.532,2389.127h14.512v1.089h-14.512V2389.127z"/>
		<text transform="matrix(1 0 0 1 217.6714 2393.7881)" font-family="'Calibri-Italic'" font-size="17">U. maracoani</text>
		<path d="M161.077,2425.043H195v1.089h-33.923V2425.043z"/>
		<path fill="none" stroke="#000000" stroke-width="1.0884" stroke-linejoin="bevel" stroke-miterlimit="10" d="M200,2413.615
			h-0.468h-0.544c-2.004,0-3.628,1.625-3.628,3.628v1.089v14.512v1.088c0,2.004,1.624,3.628,3.628,3.628h0.544H200"/>
		<path d="M199.532,2413.071h14.512v1.089h-14.512V2413.071z"/>
		<text transform="matrix(1 0 0 1 217.6714 2417.7324)" font-family="'Calibri-Italic'" font-size="17">U. monilifera</text>
		<path d="M199.532,2437.016h14.512v1.088h-14.512V2437.016z"/>
		<text transform="matrix(1 0 0 1 217.6714 2441.6758)" font-family="'Calibri-Italic'" font-size="17">U. princeps</text>
	</g>
</g>
</svg>
